<?xml version="1.0" encoding="UTF-8"?>
<svg id="_레이어_1" data-name="레이어_1" xmlns="http://www.w3.org/2000/svg" version="1.1" viewBox="0 0 268.49 395.57">
  <!-- Generator: Adobe Illustrator 29.4.0, SVG Export Plug-In . SVG Version: 2.1.0 Build 152)  -->
  <defs>
    <style>
      .st0 {
        fill: #fff;
      }

      .st1 {
        fill: #231815;
      }

      .st2 {
        fill: #e60012;
        stroke: #231815;
        stroke-miterlimit: 10;
        stroke-width: 5px;
      }
    </style>
  </defs>
  <g>
    <polygon class="st1" points="86.41 67.91 25.64 67.91 25.64 27.39 127.23 27.39 86.41 67.91"/>
    <rect class="st1" x="25.64" y="47.65" width="40.52" height="141.5"/>
    <rect class="st1" x="34.71" y="87.86" width="52" height="40.82"/>
  </g>
  <g>
    <polygon class="st1" points="129.95 189.15 89.44 189.15 89.44 69.72 129.95 29.51 129.95 189.15"/>
    <polygon class="st1" points="103.95 189.15 213.1 189.15 173.19 151.36 103.95 151.36 103.95 189.15"/>
  </g>
  <g>
    <polygon class="st1" points="215.38 189.15 170.77 145.04 170.77 120.22 215.38 120.22 215.38 189.15"/>
    <polygon class="st1" points="208.93 27.19 253.1 27.19 215.38 120.22 215.38 128.68 170.77 128.68 170.77 120.22 132.59 27.19 176.59 27.19 193.07 67.91 208.93 27.19"/>
  </g>
  <g>
    <rect class="st1" x="32.23" y="224.26" width="36.66" height="142.83"/>
    <rect class="st1" x="121.86" y="224.26" width="36.66" height="142.83"/>
    <polygon class="st1" points="95.83 367.08 59.39 295.67 59.39 224.26 68.89 224.26 95.83 276.78 121.86 224.26 136.2 270.1 121.86 314.89 95.83 367.08"/>
  </g>
  <g>
    <rect class="st1" x="160.94" y="331.31" width="77.35" height="35.77"/>
    <rect class="st1" x="160.94" y="277.78" width="77.35" height="35.77"/>
    <rect class="st1" x="158.52" y="224.26" width="79.76" height="35.77"/>
    <rect class="st1" x="202.95" y="224.26" width="35.33" height="142.83"/>
    <rect class="st1" x="115.02" y="331.31" width="5.61" height="35.77"/>
  </g>
  <g>
    <path class="st2" d="M25.39,198.6c-1.68,2.43-3.3,4.9-4.84,7.43-2.72,4.46-5.21,9.11-6.86,14.07-2.27,6.82-3.82,16.33,1.72,22.05,0,0,15.39,15.88,33.83-17.89,0,0-1.52,14.31,7.22,18.68,0,0,9.69,12.54,37.06-15.01,0,0,14.63-15.01,17.1-28.12,0,0,5.7,0,10.07-2.47-6.7,7.89-12.8,17.66-15.28,27.77-1.4,5.69-1.55,11.9,2.62,16.52,4.09,4.54,10.08,5.51,15.62,3.22,3.91-1.62,7.22-4.31,10.14-7.33,1.48-1.54,2.83-3.19,4.24-4.79,1.05-1.19,2.71-2.64,3.19-4.22-.32,1.07.13,2.8.3,3.85.49,2.87,1.53,5.75,3.34,8.06,10.01,12.74,25.39.6,32.84-8.12-.77.9-.22,4.39-.11,5.44.25,2.43.92,5.03,2.77,6.75,1.88,1.75,4.79,2.23,7.21,1.34,2.66-.98,4.17-3.25,4.94-5.88.36-1.23.4-2.5.68-3.72.36-1.61,1.25-3.21,1.95-4.7,4.26-8.96,10.75-16.48,17.25-23.86,2.57-2.92,5.2-5.79,7.87-8.62,2.05-2.17,4.73-4.04,7.13-5.8,1.33-.98,2.95-2.42,4.64-2.68.4-.06.84.03,1.11.33,1.43,1.61-.87,3.84-1.87,4.99-1.79,2.06-3.44,4.26-5.11,6.43-3.64,4.71-7.16,9.57-9.82,14.91-1.85,3.72-3.28,7.72-3.56,11.87s.7,8.47,3.26,11.75c1.5,1.93,3.55,3.47,5.89,4.19,5.56,1.72,11.7-1.08,15.89-4.66,5.51-4.72,10.08-10.44,14.17-16.39,2.08-3.02,4.04-6.12,5.94-9.26,1.14-1.88,4.23-6.06,1.48-7.87-1.32-.87-3.22.86-4.03,1.72-2.22,2.37-4.14,5.06-6.34,7.47-4.54,4.99-9.51,10.4-15.2,14.09-.75.49-2.8,1.74-3.7.98s.15-2.7.63-3.41c4.15-6.16,8.18-12.4,11.7-18.95,3.86-7.16,9.85-17.33,4.76-25.35-6.5-10.26-20.44-4.43-26.39,2.97,0,0-8.58,8.06-14.98,17.15l4.61-9.22s35.71-29.31,21.25-38.27c0,0-8.06-7.55-21.63,10.88,0,0-18.69,26.24-24.83,43.65,0,0-28.03,28.16-28.67,18.05,0,0,1.54-14.02,18.05-39.46.09-.14,2.13.08,2.33.08,2.04,0,4.08-.16,6.09-.54,3.77-.7,7.28-2.12,9.83-5.09.65-.75,1.22-1.59,1.46-2.55.55-2.22-.98-3.59-3.07-3.65,0,0-3.71.26-6.01-1.15.74.45,3.5-6.07,3.74-6.8,1.25-3.91-1.03-7.65-4.77-9-8.2-2.94-15.63,5.74-19.44,11.7-.04.06-1.57-.16-1.7-.16-4.98-.13-9.75,2.61-12.36,6.82-.38.62-.73,1.28-.86,1.99-.31,1.71.91,2.88,2.28,3.67.54.31,4.5,1.92,4.83,1.38,0,0-9.86,16.26-12.8,28.16-.24.98-2.67,2.67-3.38,3.34-1.64,1.57-3.29,3.11-4.87,4.75-3.33,3.48-6.59,7.13-10.73,9.67-.72.44-1.49.85-2.33.9-5.53.33.31-9.78,1.35-11.64,3.77-6.77,8.53-12.92,13.13-19.13,1.56-2.1,3.11-4.24,4.23-6.61,2.19-4.66,2.42-10.74-2.65-13.54-2.1-1.16-4.77-.92-6.89.07-1.38.65-2.02,1.93-2.92,3.06-1.22,1.52-2.3,1.83-4.21,2.14-3.33.53-6.74.57-10.08.1-1.46-.2-2.65-.19-3.47-1.49s-.85-2.78-1.8-3.94c-1.34-1.65-3.14-2.93-5.15-3.63-4.07-1.42-8.64-.41-11.67,2.68-2.2,2.24-3.25,5.29-3.3,8.39,0,0-.05,5.67,4.3,7.59,1.47.65-5.67,12.36-6.38,13.49-2.85,4.56-6.07,8.9-9.6,12.96s-6.59,8.12-10.83,11.2c-.31.23-.65.46-1.04.47-1.08.05-1.47-1.4-1.43-2.48.3-7.09,3.57-14.23,6.39-20.64,1.86-4.24,3.98-8.37,6.33-12.36,2.13-3.61,6.02-7.46,6.67-11.69.31-2.05-.16-4.2-1.31-5.92-1.8-2.7-5.26-4.29-8.46-3.53-3.14.74-5.21,3.26-6.76,5.91-1.98,3.37-4.13,6.66-6.3,9.91-4.4,6.6-9.08,13.01-14.03,19.2-5.12,6.4-10.58,12.63-17.16,17.5-.36.27-.8.55-1.24.44-.75-.2-.77-1.25-.59-2,.86-3.54,2.53-6.83,4.31-10.02,4.87-8.73,10.69-17.68,17.79-24.78,2.03-2.19,4.25-4.48,4.84-7.41.43-2.14-.12-4.45-1.48-6.16s-3.48-2.78-5.66-2.84c-2.11-.05-4.15.79-5.95,1.91-3.68,2.28-6.55,5.63-9.24,9.02-2.51,3.15-4.92,6.38-7.22,9.69Z"/>
    <circle class="st2" cx="144.73" cy="168.7" r="9.44"/>
  </g>
  <g>
    <path class="st0" d="M25.39,198.6c-1.68,2.43-3.3,4.9-4.84,7.43-2.72,4.46-5.21,9.11-6.86,14.07-2.27,6.82-3.82,16.33,1.72,22.05,0,0,15.39,15.88,33.83-17.89,0,0-1.52,14.31,7.22,18.68,0,0,9.69,12.54,37.06-15.01,0,0,14.63-15.01,17.1-28.12,0,0,5.7,0,10.07-2.47-6.7,7.89-12.8,17.66-15.28,27.77-1.4,5.69-1.55,11.9,2.62,16.52,4.09,4.54,10.08,5.51,15.62,3.22,3.91-1.62,7.22-4.31,10.14-7.33,1.48-1.54,2.83-3.19,4.24-4.79,1.05-1.19,2.71-2.64,3.19-4.22-.32,1.07.13,2.8.3,3.85.49,2.87,1.53,5.75,3.34,8.06,10.01,12.74,25.39.6,32.84-8.12-.77.9-.22,4.39-.11,5.44.25,2.43.92,5.03,2.77,6.75,1.88,1.75,4.79,2.23,7.21,1.34,2.66-.98,4.17-3.25,4.94-5.88.36-1.23.4-2.5.68-3.72.36-1.61,1.25-3.21,1.95-4.7,4.26-8.96,10.75-16.48,17.25-23.86,2.57-2.92,5.2-5.79,7.87-8.62,2.05-2.17,4.73-4.04,7.13-5.8,1.33-.98,2.95-2.42,4.64-2.68.4-.06.84.03,1.11.33,1.43,1.61-.87,3.84-1.87,4.99-1.79,2.06-3.44,4.26-5.11,6.43-3.64,4.71-7.16,9.57-9.82,14.91-1.85,3.72-3.28,7.72-3.56,11.87s.7,8.47,3.26,11.75c1.5,1.93,3.55,3.47,5.89,4.19,5.56,1.72,11.7-1.08,15.89-4.66,5.51-4.72,10.08-10.44,14.17-16.39,2.08-3.02,4.04-6.12,5.94-9.26,1.14-1.88,4.23-6.06,1.48-7.87-1.32-.87-3.22.86-4.03,1.72-2.22,2.37-4.14,5.06-6.34,7.47-4.54,4.99-9.51,10.4-15.2,14.09-.75.49-2.8,1.74-3.7.98s.15-2.7.63-3.41c4.15-6.16,8.18-12.4,11.7-18.95,3.86-7.16,9.85-17.33,4.76-25.35-6.5-10.26-20.44-4.43-26.39,2.97,0,0-8.58,8.06-14.98,17.15l4.61-9.22s35.71-29.31,21.25-38.27c0,0-8.06-7.55-21.63,10.88,0,0-18.69,26.24-24.83,43.65,0,0-28.03,28.16-28.67,18.05,0,0,1.54-14.02,18.05-39.46.09-.14,2.13.08,2.33.08,2.04,0,4.08-.16,6.09-.54,3.77-.7,7.28-2.12,9.83-5.09.65-.75,1.22-1.59,1.46-2.55.55-2.22-.98-3.59-3.07-3.65,0,0-3.71.26-6.01-1.15.74.45,3.5-6.07,3.74-6.8,1.25-3.91-1.03-7.65-4.77-9-8.2-2.94-15.63,5.74-19.44,11.7-.04.06-1.57-.16-1.7-.16-4.98-.13-9.75,2.61-12.36,6.82-.38.62-.73,1.28-.86,1.99-.31,1.71.91,2.88,2.28,3.67.54.31,4.5,1.92,4.83,1.38,0,0-9.86,16.26-12.8,28.16-.24.98-2.67,2.67-3.38,3.34-1.64,1.57-3.29,3.11-4.87,4.75-3.33,3.48-6.59,7.13-10.73,9.67-.72.44-1.49.85-2.33.9-5.53.33.31-9.78,1.35-11.64,3.77-6.77,8.53-12.92,13.13-19.13,1.56-2.1,3.11-4.24,4.23-6.61,2.19-4.66,2.42-10.74-2.65-13.54-2.1-1.16-4.77-.92-6.89.07-1.38.65-2.02,1.93-2.92,3.06-1.22,1.52-2.3,1.83-4.21,2.14-3.33.53-6.74.57-10.08.1-1.46-.2-2.65-.19-3.47-1.49s-.85-2.78-1.8-3.94c-1.34-1.65-3.14-2.93-5.15-3.63-4.07-1.42-8.64-.41-11.67,2.68-2.2,2.24-3.25,5.29-3.3,8.39,0,0-.05,5.67,4.3,7.59,1.47.65-5.67,12.36-6.38,13.49-2.85,4.56-6.07,8.9-9.6,12.96s-6.59,8.12-10.83,11.2c-.31.23-.65.46-1.04.47-1.08.05-1.47-1.4-1.43-2.48.3-7.09,3.57-14.23,6.39-20.64,1.86-4.24,3.98-8.37,6.33-12.36,2.13-3.61,6.02-7.46,6.67-11.69.31-2.05-.16-4.2-1.31-5.92-1.8-2.7-5.26-4.29-8.46-3.53-3.14.74-5.21,3.26-6.76,5.91-1.98,3.37-4.13,6.66-6.3,9.91-4.4,6.6-9.08,13.01-14.03,19.2-5.12,6.4-10.58,12.63-17.16,17.5-.36.27-.8.55-1.24.44-.75-.2-.77-1.25-.59-2,.86-3.54,2.53-6.83,4.31-10.02,4.87-8.73,10.69-17.68,17.79-24.78,2.03-2.19,4.25-4.48,4.84-7.41.43-2.14-.12-4.45-1.48-6.16s-3.48-2.78-5.66-2.84c-2.11-.05-4.15.79-5.95,1.91-3.68,2.28-6.55,5.63-9.24,9.02-2.51,3.15-4.92,6.38-7.22,9.69Z"/>
    <circle class="st0" cx="144.73" cy="168.7" r="9.44"/>
  </g>
</svg>