<svg width="32" height="32" viewBox="0 0 32 32" fill="none" xmlns="http://www.w3.org/2000/svg">
<path d="M25 0H7C4.94994 0 3.10581 0.881375 1.82556 2.28569H30.1744C28.8942 0.881375 27.0501 0 25 0Z" fill="#FF4B55"/>
<path d="M30.1744 2.28613H1.82555C1.2248 2.9452 0.748358 3.71945 0.432983 4.57188H31.5669C31.2516 3.71945 30.7752 2.9452 30.1744 2.28613Z" fill="#F5F5F5"/>
<path d="M31.567 4.57129H0.433019C0.168769 5.28554 0.0178936 6.05473 0.00183105 6.85698H31.9982C31.9821 6.05473 31.8313 5.28554 31.567 4.57129Z" fill="#FF4B55"/>
<path d="M0.0018125 6.85742C0.000875 6.90498 0 6.95255 0 7.0003V9.14318H32V7.0003C32 6.95255 31.9991 6.90498 31.9982 6.85742H0.0018125Z" fill="#F5F5F5"/>
<path d="M32 9.14355H0V11.4292H32V9.14355Z" fill="#FF4B55"/>
<path d="M32 11.4287H0V13.7144H32V11.4287Z" fill="#F5F5F5"/>
<path d="M32 13.7148H0V16.0005H32V13.7148Z" fill="#FF4B55"/>
<path d="M0 16.8421H0.842125L0.842313 18.2857H32V16H0V16.8421Z" fill="#F5F5F5"/>
<path d="M0.842125 16.8418H0V18.2854V20.5711H32V18.2854H0.842313L0.842125 16.8418Z" fill="#FF4B55"/>
<path d="M32 20.5713H0V22.857H32V20.5713Z" fill="#F5F5F5"/>
<path d="M0 25.0003C0 25.048 0.000875 25.0956 0.0018125 25.1432H31.9982C31.9991 25.0956 32 25.0481 32 25.0003V22.8574H0V25.0003Z" fill="#FF4B55"/>
<path d="M0.433019 27.4283H31.567C31.8312 26.714 31.9821 25.9448 31.9981 25.1426H0.00183105C0.0178936 25.9448 0.168769 26.714 0.433019 27.4283Z" fill="#F5F5F5"/>
<path d="M1.82555 29.7144H30.1744C30.7751 29.0553 31.2515 28.2811 31.5669 27.4287H0.432983C0.748358 28.2811 1.2248 29.0553 1.82555 29.7144Z" fill="#FF4B55"/>
<path d="M7 31.9996H25C27.0501 31.9996 28.8942 31.1182 30.1744 29.7139H1.82556C3.10581 31.1182 4.94994 31.9996 7 31.9996Z" fill="#F5F5F5"/>
<path d="M18.2857 0H6.99881C3.13338 0.0006875 0 3.13444 0 7V18.2857H18.2857V0Z" fill="#41479B"/>
<path d="M3.92158 9.13362C3.92158 6.41599 6.1274 4.21149 8.84252 4.21149C9.52565 4.21149 10.1753 4.35137 10.7668 4.60337C10.8436 4.63605 10.9015 4.52918 10.8325 4.48224C9.85358 3.81587 8.65658 3.45087 7.37265 3.51755C4.54983 3.6643 2.24165 5.93793 2.05915 8.75868C1.8469 12.0397 4.44321 14.7577 7.67221 14.7577C8.83908 14.7577 9.92383 14.3981 10.8246 13.7885C10.894 13.7416 10.8365 13.6344 10.7594 13.6671C10.1698 13.9171 9.52277 14.0559 8.84252 14.0559C6.1274 14.0559 3.92158 11.8514 3.92158 9.13362Z" fill="#FFE15A"/>
<path d="M15.1707 9.13381L17.2511 8.3288C17.354 8.28899 17.3189 8.13543 17.209 8.14424L14.9861 8.32224L16.5137 6.68937C16.589 6.60887 16.4909 6.4858 16.3956 6.54137L14.4651 7.66762L15.1314 5.53699C15.1643 5.4318 15.0225 5.36355 14.9608 5.45493L13.711 7.30637L13.3904 5.09655C13.3746 4.98743 13.2171 4.9873 13.2011 5.09643L12.9963 6.49468L12.9113 7.08637L12.8786 7.30637L11.6288 5.45655C11.567 5.36518 11.4252 5.43355 11.4583 5.53874L12.1271 7.66762L10.1966 6.54137C10.1014 6.4858 10.0033 6.6088 10.0786 6.68937L11.6061 8.32224L9.3827 8.14424C9.2727 8.13543 9.23764 8.28905 9.34058 8.3288L11.4228 9.13374L9.34052 9.93887C9.23764 9.97868 9.27264 10.1322 9.38264 10.1234L11.6061 9.94543L10.0785 11.5824C10.0033 11.6631 10.1016 11.7859 10.1968 11.7302L12.1271 10.6001L11.4583 12.7289C11.4252 12.8341 11.5671 12.9026 11.6288 12.8112L12.8785 10.9613L12.9112 11.1865L12.9962 11.773L13.201 13.1749C13.217 13.2841 13.3745 13.284 13.3903 13.1748L13.711 10.9613L14.9608 12.8127C15.0225 12.9041 15.1643 12.8359 15.1313 12.7307L14.465 10.6001L16.3955 11.7302C16.4906 11.7859 16.589 11.6631 16.5137 11.5824L14.9861 9.94543L17.209 10.1234C17.3189 10.1322 17.354 9.97868 17.2511 9.93887L15.1707 9.13381Z" fill="#FFE15A"/>
</svg>
