<svg width="100" height="55" viewBox="0 0 100 55" fill="none" xmlns="http://www.w3.org/2000/svg">
<path d="M12.4121 54.3806V53.8606C11.2621 53.7406 11.1896 53.6381 11.1596 52.2682L11.0271 46.7034C10.9971 45.4684 11.0571 45.3484 12.2346 45.2309V44.7109H9.27219L6.38229 51.2282L3.53738 44.7109H0.487484V45.2309C1.75494 45.3509 1.85744 45.5584 1.73994 47.2559L1.50495 50.1883C1.40245 51.7507 1.28496 52.5232 1.19496 53.0007C1.10746 53.5206 0.827473 53.7906 0 53.8631V54.3831H3.53738V53.8631C2.56492 53.7731 2.26993 53.6406 2.20993 52.9707C2.14993 52.5082 2.14993 51.8107 2.20993 50.5757L2.38742 46.6909H2.44742L5.45482 54.2806H5.86731L9.1247 46.5434H9.1972L9.2272 52.2732C9.2422 53.6431 9.1547 53.7456 8.04723 53.8656V54.3856H12.4096L12.4121 54.3806Z" fill="white"/>
<path d="M22.9471 54.381V53.861C22.0197 53.741 21.8272 53.5485 21.3247 52.2386C20.3672 49.6787 19.4523 47.0887 18.5098 44.4863L17.7573 44.6788L14.7349 52.3286C14.2474 53.5785 14.0724 53.741 13.1 53.861L13.085 54.381H16.3874V53.861C15.3124 53.726 15.2824 53.5185 15.4874 52.8036C15.6649 52.2086 15.8549 51.6736 16.0174 51.2111H18.8473C19.0673 51.8211 19.2898 52.4461 19.4373 52.8936C19.6722 53.5485 19.5997 53.726 18.7298 53.861V54.381H22.9446H22.9471ZM18.5673 50.4211H16.2674C16.6498 49.3637 17.0198 48.2937 17.4323 47.2062H17.4773L18.5673 50.4211Z" fill="white"/>
<path d="M33.8991 44.709H30.3017V45.229C31.3767 45.289 31.6866 45.5415 31.7616 46.1814C31.7916 46.6139 31.8791 47.3114 31.8791 48.6214V51.2413H31.8191L26.1893 44.709H23.4619V45.229C24.0819 45.289 24.4194 45.4065 24.6844 45.7639C24.9644 46.1064 24.9944 46.3889 24.9944 47.3564V50.4663C24.9944 51.7763 24.9069 52.4312 24.8469 52.9212C24.7869 53.5612 24.4494 53.7987 23.6244 53.8587V54.3787H27.2368V53.8587C26.1468 53.8137 25.8943 53.5312 25.8218 52.8762C25.7768 52.4287 25.7043 51.7738 25.7043 50.4663V47.1189H25.7493L31.8816 54.5287H32.5891V48.6214C32.5891 47.3114 32.6766 46.6114 32.7216 46.1514C32.7941 45.4665 33.1041 45.274 33.9016 45.229V44.709H33.8991Z" fill="white"/>
<path d="M40.654 47.0143C40.5365 46.0918 40.434 45.4368 40.374 44.8869C40.109 44.7819 39.2691 44.4844 38.3241 44.4844C36.2317 44.4844 34.9492 45.7643 34.9492 47.4018C34.9492 48.8292 35.9967 49.6342 37.5141 50.4067C38.6191 51.0017 39.2691 51.5516 39.2691 52.4316C39.2691 53.3691 38.6941 53.9941 37.7941 53.9941C36.3792 53.9941 35.5092 52.3266 35.2142 51.3741L34.6992 51.5366C34.8017 52.4441 34.9942 53.6941 35.1267 54.0666C35.3342 54.1566 35.6142 54.2741 36.0267 54.394C36.4692 54.5265 36.9841 54.6015 37.5166 54.6015C39.6691 54.6015 41.099 53.2766 41.099 51.5816C41.099 50.1092 40.0365 49.2742 38.4891 48.5167C37.1916 47.8618 36.6617 47.3868 36.6617 46.5668C36.6617 45.7468 37.2666 45.0944 38.0916 45.0944C39.2991 45.0944 39.8465 46.1968 40.154 47.1318L40.654 47.0118V47.0143Z" fill="white"/>
<path d="M46.3735 54.3806V53.8606C45.2836 53.7556 45.1511 53.6531 45.1511 52.4032V46.7034C45.1511 45.4384 45.2836 45.3334 46.3735 45.2309V44.7109H41.9512V45.2309C43.0411 45.3359 43.1736 45.4384 43.1736 46.7034V52.4032C43.1736 53.6531 43.0411 53.7581 41.9512 53.8606V54.3806H46.3735Z" fill="white"/>
<path d="M52.6104 44.4844C49.2355 44.4844 47.4355 46.9993 47.4355 49.5592C47.4355 52.4166 49.4855 54.604 52.4329 54.604C55.2028 54.604 57.4877 52.6541 57.4877 49.4392C57.4877 46.4918 55.2903 44.4844 52.6079 44.4844H52.6104ZM52.3454 45.1094C54.0403 45.1094 55.2353 46.8943 55.2353 49.8567C55.2353 52.5941 54.1003 53.9791 52.7004 53.9791C50.8129 53.9791 49.693 51.8216 49.693 49.2767C49.693 46.7318 50.8579 45.1094 52.3454 45.1094Z" fill="white"/>
<path d="M68.5875 44.709H64.9902V45.229C66.0651 45.289 66.3751 45.5415 66.4501 46.1814C66.4801 46.6139 66.5676 47.3114 66.5676 48.6214V51.2413H66.5076L60.8778 44.709H58.1504V45.229C58.7704 45.289 59.1079 45.4065 59.3729 45.7639C59.6528 46.1064 59.6828 46.3889 59.6828 47.3564V50.4663C59.6828 51.7763 59.5953 52.4312 59.5353 52.9212C59.4753 53.5612 59.1379 53.7987 58.3129 53.8587V54.3787H61.9253V53.8587C60.8353 53.8137 60.5828 53.5312 60.5103 52.8762C60.4653 52.4287 60.3928 51.7738 60.3928 50.4663V47.1189H60.4378L66.5701 54.5287H67.2776V48.6214C67.2776 47.3114 67.3651 46.6114 67.4101 46.1514C67.4826 45.4665 67.7926 45.274 68.59 45.229V44.709H68.5875Z" fill="white"/>
<path d="M84.2351 44.5938C84.1451 44.5938 83.9651 44.8687 83.9351 44.9537C83.8451 45.0637 83.6351 45.3412 83.6351 45.3412H82.4402C81.4827 44.8987 81.0052 44.8712 80.8852 44.8712C80.7952 44.8712 80.7952 45.2037 80.7952 45.2037C80.7952 45.2037 80.8252 48.8761 80.8252 49.4561C80.8252 50.0361 80.7052 50.9185 80.4952 51.7185C80.2552 52.601 79.8678 53.016 79.2403 53.596C78.5828 54.1759 77.2978 54.7284 77.1178 54.8109C76.9378 54.8934 76.9079 54.9759 76.9079 54.9759C76.9079 54.9759 76.7579 55.0859 77.6553 54.8384C78.7903 54.5359 79.7178 54.0659 80.2277 53.7609C82.1702 52.5185 82.1402 50.6685 82.1402 50.6685H83.9626V53.0435C83.9626 53.126 83.9026 53.2085 83.7826 53.3185C83.6026 53.456 82.9752 53.511 82.7652 53.511C82.5552 53.511 82.2577 53.4835 82.2877 53.5935C82.2877 53.7034 82.7052 53.8959 82.9751 54.0634C83.2451 54.2284 83.3051 54.5884 83.3926 54.7534C83.4826 54.9184 84.2301 55.1134 84.8876 54.6159C85.5451 54.1184 85.4551 53.2635 85.4551 53.2635V45.9212C85.4551 45.9212 85.5151 45.8662 85.6051 45.7837C85.6951 45.7012 85.935 45.4812 85.6351 45.2037C85.0676 44.7062 84.2901 44.5962 84.2301 44.5962L84.2351 44.5938ZM83.9351 50.4736H82.1702C82.2102 49.5353 82.2302 48.7253 82.2302 48.0436H83.9351V50.4736ZM83.9351 47.8236H82.2302V45.9187C82.2302 45.9187 82.2602 45.5037 82.5602 45.5037H83.9051V47.8236H83.9351Z" fill="white"/>
<path d="M76.6999 52.0182H78.2248V52.6807C78.2248 52.7082 78.2248 52.8457 78.3148 52.9007C78.3748 52.9832 78.5848 53.0107 78.9723 52.9832C79.3598 52.9557 79.4198 52.8182 79.5098 52.7082C79.5998 52.5982 79.5998 52.3482 79.5998 52.3482V46.0534C79.5998 46.0534 79.6298 45.9984 79.6898 45.9434C79.7498 45.8884 80.0498 45.806 79.9598 45.6685C79.6623 45.061 79.0023 44.8685 78.8548 44.841C78.6448 44.7585 78.4348 44.731 78.3773 44.8135C78.3173 44.896 78.1973 45.0885 78.1373 45.201C78.0773 45.311 77.9573 45.3935 77.9573 45.3935H76.5224C76.5224 45.3935 75.6849 44.9785 75.4749 45.006C75.2949 45.006 75.2949 45.226 75.2949 45.226V53.2032C75.2949 53.2032 75.2949 53.3407 75.3849 53.3957C75.4749 53.4507 75.6549 53.4232 75.8324 53.4232C76.0099 53.4232 76.3099 53.3957 76.5199 53.2857C76.6999 53.1482 76.6699 52.9257 76.6699 52.9257V52.0157H76.6999V52.0182ZM76.9999 45.586H78.2248V48.5959H76.6999V45.9459C76.6999 45.9734 76.6699 45.6135 76.9999 45.586ZM78.2248 48.8159V51.7983H76.6999V48.8159H78.2248Z" fill="white"/>
<path d="M99.094 46.828C98.974 46.828 98.884 46.938 98.764 47.103C98.6441 47.2405 98.2566 47.7105 98.2566 47.7105H97.9266V45.2256C97.9566 45.1156 98.1366 45.0606 98.1066 44.9231C98.1066 44.8681 97.8066 44.7581 97.4791 44.7031C97.2391 44.6756 96.7316 44.6206 96.5516 44.6481C96.4016 44.6756 96.4016 44.8681 96.4016 44.8681V47.713H94.9367V46.0831C94.9367 46.0831 96.0416 45.7531 96.1916 45.6956C96.3416 45.6406 96.3716 45.5581 96.3116 45.5031C96.2816 45.4481 96.1916 45.3931 96.0116 45.3106C95.8316 45.2281 95.5042 45.0356 95.2042 44.8681C94.9067 44.7031 94.8742 44.7031 94.7567 44.7031C94.6667 44.7031 94.5467 44.7856 94.3667 44.9506C93.5892 45.6681 92.1543 46.6081 91.9443 46.773L91.9143 46.8005C91.9743 46.8555 93.4392 46.4406 93.4392 46.4406V47.7105H91.2868C91.1368 47.7105 91.2568 47.8205 91.3768 47.8755C91.4668 47.9305 91.4968 47.9305 91.4968 47.9305H93.4392C93.4392 47.9305 93.4392 48.593 93.3792 49.0905C93.2592 49.8904 92.7817 50.5804 92.7817 50.5804C92.7517 50.6079 92.7517 50.6354 92.7517 50.6354V50.7179C92.8417 50.8004 93.0817 50.6079 93.3792 50.4129C93.8567 50.1104 94.2167 49.8329 94.4567 49.448C94.7867 48.9505 94.9042 47.9305 94.9042 47.9305H96.3991C96.3991 47.9305 96.3691 50.6079 96.3991 50.6904C96.4291 50.8004 96.4591 50.9104 96.9966 50.9104C97.5341 50.8829 97.7441 50.7729 97.8341 50.6904C97.9241 50.6079 97.8941 50.4429 97.8941 50.4429V47.903H99.8365C99.9265 47.903 100.017 47.848 99.9865 47.738C99.9565 47.628 99.7765 47.378 99.569 47.1855C99.389 46.993 99.239 46.8255 99.0915 46.8255L99.094 46.828Z" fill="white"/>
<path d="M98.4967 53.2058C98.1967 53.0408 98.0792 53.1783 97.9292 53.3433C97.8092 53.4533 97.2418 54.1433 97.2418 54.1433H95.8968V52.1559H97.8392C98.0792 52.1559 98.2592 52.1284 98.3767 52.0459C98.4967 51.9634 98.3767 51.8259 98.1067 51.5759C97.7767 51.2734 97.3293 51.0784 97.2393 51.0784C97.1493 51.0784 96.9993 51.2709 96.9393 51.3809C96.8793 51.4909 96.5218 51.9334 96.5218 51.9334H95.9243V50.6909C95.9243 50.6359 96.1643 50.4984 96.1643 50.3609C96.1643 50.2784 96.0743 50.1134 95.8668 50.0009C95.5968 49.8634 95.0593 49.8359 94.7593 49.8359C94.4293 49.8359 94.4593 50.1959 94.4593 50.1959V51.9359H92.8444C92.7244 51.9359 92.6044 51.9359 92.7544 52.0459C92.9044 52.1559 93.0819 52.1559 93.0819 52.1559H94.4568V54.1433H91.227C91.077 54.1433 91.137 54.2258 91.1969 54.2808C91.2569 54.3083 91.4369 54.3083 91.4369 54.3083H99.0617C99.1517 54.3083 99.6892 54.3358 99.3017 53.9208C98.7942 53.3683 98.5542 53.2308 98.4942 53.2033L98.4967 53.2058Z" fill="white"/>
<path d="M91.9196 51.7424C91.9796 51.6324 92.0096 51.5224 92.0396 51.3824C92.0696 51.2724 92.0996 51.1349 92.1296 50.9675C92.1296 50.885 92.1596 50.8025 92.1296 50.72V50.5C92.0396 49.9475 91.6522 49.45 91.2322 49.0925C90.7547 48.6775 90.1847 48.375 90.1847 48.375C90.6322 47.7126 91.0222 47.1601 91.3197 46.7176L91.3497 46.6901C91.7971 46.0826 92.0971 45.7226 92.0971 45.7226C92.1271 45.6951 92.2171 45.6401 92.0971 45.5576C91.8871 45.3651 91.3797 45.0601 91.1397 44.9502C90.8997 44.8402 90.8097 44.7852 90.7222 44.7852C90.6347 44.7852 90.5722 44.8677 90.5422 44.9227C90.4822 44.9777 90.2122 45.2826 90.2122 45.2826H89.6447C89.6447 45.2826 88.7772 44.8127 88.4498 44.8127C88.2398 44.8127 88.2398 44.9777 88.2398 44.9777V54.6673C88.2398 54.7223 88.2098 54.9148 88.4198 54.9698C88.7197 55.0523 89.1672 54.9148 89.3172 54.8323C89.5272 54.7498 89.4972 54.4723 89.4972 54.4723V51.4624C90.1547 51.6549 90.2447 52.0149 90.3047 52.1799C90.3647 52.3724 90.2747 52.7049 90.8422 52.5399C91.0822 52.4574 91.2897 52.3474 91.4697 52.2374C91.6497 52.1274 91.7996 51.9899 91.9171 51.7399L91.9196 51.7424ZM90.7822 50.8575C90.5122 51.3549 89.5272 51.2999 89.5272 51.2999V45.8876C89.5272 45.5576 89.8572 45.5576 89.8572 45.5576H90.4847C90.2747 47.1576 89.8272 48.5675 89.8272 48.5675C89.8272 48.5675 90.3047 49.0925 90.5747 49.45C90.8447 49.78 91.0222 50.415 90.7847 50.8575H90.7822Z" fill="white"/>
<path fill-rule="evenodd" clip-rule="evenodd" d="M71.833 54.604V44.4844H72.0505V54.604H71.833Z" fill="white"/>
<path d="M66.9582 19.8568C71.958 19.1119 73.053 16.517 73.053 12.0746V7.39476C73.053 2.47492 69.1181 0 61.2184 0C53.3187 0 49.3838 2.47492 49.3838 7.39476V12.9096C49.3838 16.7844 50.2413 18.8119 54.7986 19.5869C50.2413 20.5993 49.3838 23.4317 49.3838 27.5766V33.6289C49.3838 38.6087 53.3187 41.0811 61.2184 41.0811C69.1181 41.0811 73.053 38.6062 73.053 33.6289V27.6366C73.053 23.0742 71.958 20.4818 66.9582 19.8543V19.8568ZM61.1584 17.2619C59.4135 17.2619 58.5535 16.427 58.5535 14.787V6.91727C58.5535 5.30733 59.411 4.53235 61.1584 4.53235C62.9058 4.53235 63.8208 5.33732 63.8208 6.91727V14.787C63.8208 16.427 62.9333 17.2619 61.1584 17.2619ZM61.1584 36.3138C59.4135 36.3138 58.5535 35.4788 58.5535 33.8389V24.9242C58.5535 23.2242 59.411 22.3893 61.1584 22.3893C62.9058 22.3893 63.8208 23.2242 63.8208 24.9242V33.8389C63.8208 35.4788 62.9333 36.3138 61.1584 36.3138Z" fill="white"/>
<path d="M93.897 19.8568C98.9019 19.1119 99.9968 16.517 99.9968 12.0746V7.39476C99.9968 2.47492 96.0595 0 88.1522 0C80.245 0 76.3076 2.47492 76.3076 7.39476V12.9096C76.3076 16.7844 77.1676 18.8119 81.7274 19.5869C77.1676 20.5993 76.3076 23.4317 76.3076 27.5766V33.6289C76.3076 38.6087 80.245 41.0811 88.1522 41.0811C96.0595 41.0811 99.9968 38.6062 99.9968 33.6289V27.6366C99.9968 23.0742 98.9019 20.4818 93.897 19.8543V19.8568ZM88.0922 17.2619C86.3448 17.2619 85.4873 16.427 85.4873 14.787V6.91727C85.4873 5.30733 86.3473 4.53235 88.0922 4.53235C89.8372 4.53235 90.7571 5.33732 90.7571 6.91727V14.787C90.7871 16.427 89.8972 17.2619 88.0922 17.2619ZM88.0922 36.3138C86.3448 36.3138 85.4873 35.4788 85.4873 33.8389V24.9242C85.4873 23.2242 86.3473 22.3893 88.0922 22.3893C89.8372 22.3893 90.7571 23.2242 90.7571 24.9242V33.8389C90.7871 35.4788 89.8972 36.3138 88.0922 36.3138Z" fill="white"/>
<path d="M0 0.642168C0 0.317179 0.262491 0.0546875 0.587481 0.0546875H45.541C45.866 0.0546875 46.1285 0.317179 46.1285 0.642168V40.5484C46.1285 40.8733 45.866 41.1358 45.541 41.1358H0.587481C0.262491 41.1383 0 40.8733 0 40.5509V0.642168Z" fill="#D3B271"/>
<path d="M2.27734 2.92537C2.27734 2.60038 2.53984 2.33789 2.86482 2.33789H43.2635C43.5885 2.33789 43.851 2.60038 43.851 2.92537V38.2667C43.851 38.5917 43.5885 38.8542 43.2635 38.8542H2.86482C2.53984 38.8542 2.27734 38.5917 2.27734 38.2667V2.92537Z" fill="#BE181B"/>
<path fill-rule="evenodd" clip-rule="evenodd" d="M17.8223 20.4373V33.3769C17.8223 33.6594 17.7498 33.8369 17.4973 33.8369C17.2448 33.8369 17.1398 33.6594 17.1398 33.3769V31.6694H16.4999C16.0399 31.6694 14.5549 32.8094 13.6124 33.5369C13.31 33.7694 13.0625 33.9593 12.925 34.0543C11.8875 33.4494 10.5975 32.8469 9.63258 32.5244C9.46009 32.6869 9.30009 32.8319 9.1576 32.9644C8.85761 33.2419 8.62261 33.4594 8.45762 33.6294C8.39512 33.6894 8.34262 33.7444 8.29762 33.7944C8.15513 33.9418 8.07513 34.0243 7.99513 34.0243C7.81764 34.0243 7.59765 33.8144 7.59765 33.6294C7.59765 33.4444 7.99513 33.0244 9.82007 31.1644C11.07 29.8845 11.5725 28.352 11.5725 25.9996C11.5725 22.1147 9.89257 18.7973 7.96264 18.7973C7.32266 18.7973 6.99767 19.0473 6.89267 19.6923C6.86017 20.0148 6.71518 20.1198 6.56768 20.1198C6.28269 20.1198 6.1377 19.6523 6.1377 18.8698C6.1377 17.0899 7.38765 15.6625 8.9276 15.6625C9.64258 15.6625 10.1276 15.9774 10.5475 16.2474C10.9025 16.4774 11.21 16.6774 11.5725 16.6299V14.0275C11.5725 13.35 11.32 12.7775 10.8175 12.3526C10.3876 11.9976 8.17263 10.5001 7.34516 10.5001C7.18766 10.5001 7.07016 10.5326 6.97017 10.5626C6.89017 10.5851 6.81767 10.6051 6.73768 10.6051C6.63268 10.6051 6.59268 10.5726 6.59268 10.5001C6.59268 10.4076 6.65018 10.3401 6.81017 10.1501C6.83017 10.1251 6.85267 10.1001 6.87767 10.0726L9.70008 7.29273C9.72508 7.27523 9.75008 7.25773 9.77008 7.24023C9.87007 7.16523 9.93507 7.11523 10.0551 7.11523C10.625 7.11523 12.2075 8.1877 13.5025 9.06517C14.3974 9.67265 15.1549 10.1851 15.3449 10.1851C15.6874 10.1851 16.7023 9.55515 17.8023 8.87018C19.0973 8.0652 20.5097 7.18773 21.0722 7.18773C21.3397 7.18773 21.6122 7.40772 23.4471 8.88268L23.8221 9.18517C23.9096 9.25516 24.0221 9.34766 24.1471 9.45266C24.5296 9.77265 25.0546 10.2101 25.5421 10.5076C26.117 10.8626 26.1495 10.9351 26.1495 11.6126C26.507 11.5401 26.9045 11.2576 29.1519 9.43766C29.7919 8.90518 31.6919 7.36773 31.8368 7.36773C32.0143 7.36773 33.5893 8.01271 35.9167 8.97017C36.5967 9.25266 36.7042 9.32516 36.7042 9.75265V28.1895C36.7042 28.7945 36.7767 29.012 37.0292 29.222C38.0991 30.1495 38.7491 30.502 39.1066 30.502C39.2116 30.502 39.3591 30.462 39.4641 30.357C39.6416 30.107 39.6841 30.0745 39.7891 30.0745C39.8941 30.0745 40.0091 30.2195 40.0091 30.357C40.0091 30.5745 38.4016 32.5644 36.7567 33.8544C35.7592 33.4994 34.0393 32.3244 33.0743 31.3244C32.7493 30.9694 32.6843 30.8969 32.6843 30.292V17.0924C32.6843 15.5625 33.1793 14.5225 34.9717 12.1376C35.9042 10.9301 35.9692 10.5651 35.7917 10.5651C35.7042 10.5651 34.8942 11.1226 34.1643 11.6251C33.6693 11.9676 33.2068 12.2851 33.0343 12.3851L32.8068 12.2551C31.0569 11.2526 30.4844 10.9251 29.4894 10.9251C28.9219 10.9251 28.5245 11.2076 28.5245 11.5701V33.4944C28.5245 33.7769 28.3795 33.9943 28.167 33.9943C27.9895 33.9943 27.882 33.8169 27.882 33.5344V31.8894C26.8745 32.0519 25.992 32.8694 25.4021 33.4169C25.0896 33.7069 24.8596 33.9193 24.7346 33.9193C24.3446 33.9193 22.0172 31.1394 22.0172 30.9219V20.4398H17.8323L17.8223 20.4373ZM17.1723 11.3501C17.1723 10.6326 17.0998 10.3901 16.9623 10.3901C16.6448 10.3901 15.4949 11.1076 15.4949 11.3501V21.2198C15.4949 26.0096 14.9499 26.5821 13.7099 27.8795L13.6374 27.957C13.0625 28.562 12.9225 28.707 12.495 29.207C13.25 30.2395 15.7474 30.707 17.1823 30.6345V11.3501H17.1748H17.1723ZM22.0072 17.0549H17.8223V11.0676C17.8223 10.6001 18.0323 10.3501 18.4298 10.3501C19.3223 10.3501 22.0072 12.3801 22.0072 13.13V17.0549ZM27.872 11.9851C27.872 11.9126 27.8395 11.8801 27.727 11.8801C27.622 11.8801 27.442 11.9526 27.3295 12.0251L26.5095 12.5251C26.047 12.8075 25.902 12.9525 25.902 13.17V16.7324C25.902 16.9824 26.227 17.1599 26.477 17.1599H27.872V11.9876V11.9851ZM26.5095 20.3648H27.8645V30.702C26.542 30.597 25.9345 29.9195 25.9345 28.4945V21.1873C25.9345 20.6548 26.122 20.3648 26.5095 20.3648Z" fill="white"/>
</svg>
