<svg width="120" height="120" viewBox="0 0 120 120" fill="none" xmlns="http://www.w3.org/2000/svg">
<path d="M106.904 108.741C88.5178 123.753 31.107 123.753 13.0957 108.741C-5.29073 93.7294 -3.41459 29.5543 13.0957 12.6661C29.6061 -4.22205 90.3939 -4.22205 106.904 12.6661C123.415 29.5543 125.291 93.7297 106.904 108.741Z" fill="#329C69"/>
<path opacity="0.2" d="M13.0961 12.6659C24.4885 1.01326 56.9604 -2.59712 81.4223 1.83093C80.2915 24.6884 67.1919 49.7939 44.3627 68.0243C31.1191 78.5029 16.7532 85.187 2.60391 88.079C-3.25028 62.8717 0.987498 25.0516 13.0961 12.6659Z" fill="white"/>
<path d="M53.298 85.3101C51.3063 85.3101 49.3147 84.4558 48.1766 82.7472L32.2434 62.2433C29.9671 59.3955 30.5363 55.4087 33.3815 53.1304C36.2267 50.8522 40.21 51.4219 42.4862 54.2696L53.298 68.2236L77.1981 37.1831C79.4743 34.3353 83.4576 33.7657 86.3028 36.0439C89.148 38.3222 89.7171 42.309 87.4409 45.1568L58.4194 82.7472C56.9968 84.171 55.2898 85.3101 53.298 85.3101Z" fill="white"/>
</svg>
